<svg id="visual" viewBox="0 0 1920 2000" width="1920" height="2000" xmlns="http://www.w3.org/2000/svg" xmlns:xlink="http://www.w3.org/1999/xlink" version="1.1"><rect x="0" y="0" width="1920" height="2000" fill="#001220"></rect><defs><linearGradient id="grad1_0" x1="0%" y1="100%" x2="100%" y2="0%"><stop offset="30%" stop-color="#001220" stop-opacity="1"></stop><stop offset="70%" stop-color="#001220" stop-opacity="1"></stop></linearGradient></defs><defs><linearGradient id="grad2_0" x1="0%" y1="100%" x2="100%" y2="0%"><stop offset="30%" stop-color="#001220" stop-opacity="1"></stop><stop offset="70%" stop-color="#001220" stop-opacity="1"></stop></linearGradient></defs><g transform="translate(1920, 2000)"><path d="M-1039.7 0C-961.9 -151.6 -884 -303.2 -807.1 -466C-730.2 -628.8 -654.2 -802.9 -519.8 -900.4C-385.5 -997.9 -192.7 -1018.8 0 -1039.7L0 0Z" fill="#FBAE3C"></path></g><g transform="translate(0, 0)"><path d="M1039.7 0C939.2 138.5 838.8 277 764.7 441.5C690.6 606 642.9 796.4 519.8 900.4C396.8 1004.4 198.4 1022 0 1039.7L0 0Z" fill="#FBAE3C"></path></g></svg>