<svg id="visual" viewBox="0 0 1920 1500" width="1920" height="1500" xmlns="http://www.w3.org/2000/svg" xmlns:xlink="http://www.w3.org/1999/xlink" version="1.1"><rect x="0" y="0" width="1920" height="1500" fill="#001220"></rect><defs><linearGradient id="grad1_0" x1="21.9%" y1="0%" x2="100%" y2="100%"><stop offset="24.4%" stop-color="#514a7b" stop-opacity="1"></stop><stop offset="75.6%" stop-color="#514a7b" stop-opacity="1"></stop></linearGradient></defs><defs><linearGradient id="grad1_1" x1="21.9%" y1="0%" x2="100%" y2="100%"><stop offset="24.4%" stop-color="#514a7b" stop-opacity="1"></stop><stop offset="75.6%" stop-color="#41426e" stop-opacity="1"></stop></linearGradient></defs><defs><linearGradient id="grad1_2" x1="21.9%" y1="0%" x2="100%" y2="100%"><stop offset="24.4%" stop-color="#333b61" stop-opacity="1"></stop><stop offset="75.6%" stop-color="#41426e" stop-opacity="1"></stop></linearGradient></defs><defs><linearGradient id="grad1_3" x1="21.9%" y1="0%" x2="100%" y2="100%"><stop offset="24.4%" stop-color="#333b61" stop-opacity="1"></stop><stop offset="75.6%" stop-color="#263354" stop-opacity="1"></stop></linearGradient></defs><defs><linearGradient id="grad1_4" x1="21.9%" y1="0%" x2="100%" y2="100%"><stop offset="24.4%" stop-color="#1a2b47" stop-opacity="1"></stop><stop offset="75.6%" stop-color="#263354" stop-opacity="1"></stop></linearGradient></defs><defs><linearGradient id="grad1_5" x1="21.9%" y1="0%" x2="100%" y2="100%"><stop offset="24.4%" stop-color="#1a2b47" stop-opacity="1"></stop><stop offset="75.6%" stop-color="#102339" stop-opacity="1"></stop></linearGradient></defs><defs><linearGradient id="grad1_6" x1="21.9%" y1="0%" x2="100%" y2="100%"><stop offset="24.4%" stop-color="#081b2c" stop-opacity="1"></stop><stop offset="75.6%" stop-color="#102339" stop-opacity="1"></stop></linearGradient></defs><defs><linearGradient id="grad1_7" x1="21.9%" y1="0%" x2="100%" y2="100%"><stop offset="24.4%" stop-color="#081b2c" stop-opacity="1"></stop><stop offset="75.6%" stop-color="#001220" stop-opacity="1"></stop></linearGradient></defs><defs><linearGradient id="grad2_0" x1="0%" y1="0%" x2="78.1%" y2="100%"><stop offset="24.4%" stop-color="#514a7b" stop-opacity="1"></stop><stop offset="75.6%" stop-color="#514a7b" stop-opacity="1"></stop></linearGradient></defs><defs><linearGradient id="grad2_1" x1="0%" y1="0%" x2="78.1%" y2="100%"><stop offset="24.4%" stop-color="#41426e" stop-opacity="1"></stop><stop offset="75.6%" stop-color="#514a7b" stop-opacity="1"></stop></linearGradient></defs><defs><linearGradient id="grad2_2" x1="0%" y1="0%" x2="78.1%" y2="100%"><stop offset="24.4%" stop-color="#41426e" stop-opacity="1"></stop><stop offset="75.6%" stop-color="#333b61" stop-opacity="1"></stop></linearGradient></defs><defs><linearGradient id="grad2_3" x1="0%" y1="0%" x2="78.1%" y2="100%"><stop offset="24.4%" stop-color="#263354" stop-opacity="1"></stop><stop offset="75.6%" stop-color="#333b61" stop-opacity="1"></stop></linearGradient></defs><defs><linearGradient id="grad2_4" x1="0%" y1="0%" x2="78.1%" y2="100%"><stop offset="24.4%" stop-color="#263354" stop-opacity="1"></stop><stop offset="75.6%" stop-color="#1a2b47" stop-opacity="1"></stop></linearGradient></defs><defs><linearGradient id="grad2_5" x1="0%" y1="0%" x2="78.1%" y2="100%"><stop offset="24.4%" stop-color="#102339" stop-opacity="1"></stop><stop offset="75.6%" stop-color="#1a2b47" stop-opacity="1"></stop></linearGradient></defs><defs><linearGradient id="grad2_6" x1="0%" y1="0%" x2="78.1%" y2="100%"><stop offset="24.4%" stop-color="#102339" stop-opacity="1"></stop><stop offset="75.6%" stop-color="#081b2c" stop-opacity="1"></stop></linearGradient></defs><defs><linearGradient id="grad2_7" x1="0%" y1="0%" x2="78.1%" y2="100%"><stop offset="24.4%" stop-color="#001220" stop-opacity="1"></stop><stop offset="75.6%" stop-color="#081b2c" stop-opacity="1"></stop></linearGradient></defs><g transform="translate(1920, 0)"><path d="M0 1218.2C-163.6 1207.6 -327.3 1196.9 -466.2 1125.5C-605.1 1054.1 -719.2 921.9 -789.8 789.8C-860.4 657.8 -887.5 525.8 -951.6 394.2C-1015.7 262.5 -1117 131.3 -1218.2 0L0 0Z" fill="#041726"></path><path d="M0 1066C-143.2 1056.6 -286.4 1047.3 -407.9 984.8C-529.5 922.3 -629.3 806.7 -691.1 691.1C-752.9 575.5 -776.5 460.1 -832.6 344.9C-888.8 229.7 -977.4 114.9 -1066 0L0 0Z" fill="#0b1f33"></path><path d="M0 913.7C-122.7 905.7 -245.5 897.7 -349.6 844.1C-453.8 790.6 -539.4 691.4 -592.4 592.4C-645.3 493.3 -665.6 394.3 -713.7 295.6C-761.8 196.9 -837.7 98.5 -913.7 0L0 0Z" fill="#152740"></path><path d="M0 761.4C-102.3 754.7 -204.6 748.1 -291.4 703.4C-378.2 658.8 -449.5 576.2 -493.6 493.6C-537.8 411.1 -554.7 328.6 -594.7 246.4C-634.8 164.1 -698.1 82 -761.4 0L0 0Z" fill="#202f4d"></path><path d="M0 609.1C-81.8 603.8 -163.6 598.5 -233.1 562.8C-302.5 527 -359.6 461 -394.9 394.9C-430.2 328.9 -443.7 262.9 -475.8 197.1C-507.9 131.3 -558.5 65.6 -609.1 0L0 0Z" fill="#2c375b"></path><path d="M0 456.8C-61.4 452.8 -122.7 448.8 -174.8 422.1C-226.9 395.3 -269.7 345.7 -296.2 296.2C-322.7 246.7 -332.8 197.2 -356.8 147.8C-380.9 98.5 -418.9 49.2 -456.8 0L0 0Z" fill="#3a3f68"></path><path d="M0 304.6C-40.9 301.9 -81.8 299.2 -116.5 281.4C-151.3 263.5 -179.8 230.5 -197.5 197.5C-215.1 164.4 -221.9 131.4 -237.9 98.5C-253.9 65.6 -279.2 32.8 -304.6 0L0 0Z" fill="#494675"></path><path d="M0 152.3C-20.5 150.9 -40.9 149.6 -58.3 140.7C-75.6 131.8 -89.9 115.2 -98.7 98.7C-107.6 82.2 -110.9 65.7 -118.9 49.3C-127 32.8 -139.6 16.4 -152.3 0L0 0Z" fill="#514a7b"></path></g><g transform="translate(0, 1500)"><path d="M0 -1218.2C162.7 -1207.7 325.5 -1197.1 466.2 -1125.5C606.9 -1053.9 725.6 -921.2 784.2 -784.2C842.8 -647.1 841.2 -505.7 903.6 -374.3C965.9 -242.8 1092.1 -121.4 1218.2 0L0 0Z" fill="#041726"></path><path d="M0 -1066C142.4 -1056.7 284.8 -1047.5 407.9 -984.8C531 -922.2 634.9 -806.1 686.2 -686.2C737.4 -566.2 736.1 -442.5 790.6 -327.5C845.1 -212.5 955.6 -106.2 1066 0L0 0Z" fill="#0b1f33"></path><path d="M0 -913.7C122.1 -905.8 244.1 -897.8 349.6 -844.1C455.2 -790.4 544.2 -690.9 588.1 -588.1C632.1 -485.3 630.9 -379.3 677.7 -280.7C724.4 -182.1 819 -91.1 913.7 0L0 0Z" fill="#152740"></path><path d="M0 -761.4C101.7 -754.8 203.4 -748.2 291.4 -703.4C379.3 -658.7 453.5 -575.8 490.1 -490.1C526.7 -404.5 525.8 -316.1 564.7 -233.9C603.7 -151.8 682.5 -75.9 761.4 0L0 0Z" fill="#202f4d"></path><path d="M0 -609.1C81.4 -603.8 162.7 -598.6 233.1 -562.8C303.5 -526.9 362.8 -460.6 392.1 -392.1C421.4 -323.6 420.6 -252.8 451.8 -187.1C482.9 -121.4 546 -60.7 609.1 0L0 0Z" fill="#2c375b"></path><path d="M0 -456.8C61 -452.9 122.1 -448.9 174.8 -422.1C227.6 -395.2 272.1 -345.5 294.1 -294.1C316 -242.7 315.5 -189.6 338.8 -140.3C362.2 -91.1 409.5 -45.5 456.8 0L0 0Z" fill="#3a3f68"></path><path d="M0 -304.6C40.7 -301.9 81.4 -299.3 116.5 -281.4C151.7 -263.5 181.4 -230.3 196 -196C210.7 -161.8 210.3 -126.4 225.9 -93.6C241.5 -60.7 273 -30.4 304.6 0L0 0Z" fill="#494675"></path><path d="M0 -152.3C20.3 -151 40.7 -149.6 58.3 -140.7C75.9 -131.7 90.7 -115.2 98 -98C105.3 -80.9 105.2 -63.2 112.9 -46.8C120.7 -30.4 136.5 -15.2 152.3 0L0 0Z" fill="#514a7b"></path></g></svg>